<?xml version="1.0" encoding="utf-8"?>
<svg viewBox="0 0 500 500" xmlns="http://www.w3.org/2000/svg">
  <defs>
    <pattern id="pattern-0" x="0" y="0" width="20" height="20" patternUnits="userSpaceOnUse" viewBox="0 0 100 100">
      <path d="M 0 0 L 50 0 L 50 100 L 0 100 Z" style="fill: black;"/>
    </pattern>
    <radialGradient id="gradient-3" gradientUnits="userSpaceOnUse" cx="322.564" cy="170.102" r="46.183" gradientTransform="matrix(1.360424, -0.000001, 0, 1.181328, -96.565178, -49.434359)">
      <stop offset="0" style="stop-color: rgba(35, 118, 94, 1)"/>
      <stop offset="1" style="stop-color: rgba(12, 39, 31, 1)"/>
    </radialGradient>
    <linearGradient id="gradient-4" gradientUnits="userSpaceOnUse" x1="322.564" y1="126.541" x2="322.564" y2="213.663" gradientTransform="matrix(1.35565, -0.098858, 0.102939, 1.064432, -108.051594, -2.754896)">
      <stop offset="0" style="stop-color: rgba(85, 197, 132, 1)"/>
      <stop offset="1" style="stop-color: rgba(46, 134, 83, 1)"/>
    </linearGradient>
    <radialGradient id="gradient-10" gradientUnits="userSpaceOnUse" cx="209.407" cy="84.487" r="127.098" gradientTransform="matrix(-0.558271, -0.513006, 0.460819, -0.606074, 157.662844, 360.500914)">
      <stop offset="0" style="stop-color: rgba(85, 197, 132, 1)"/>
      <stop offset="1" style="stop-color: rgba(46, 134, 83, 1)"/>
    </radialGradient>
    <linearGradient id="gradient-12" gradientUnits="userSpaceOnUse" x1="209.518" y1="160.04" x2="209.518" y2="214.93" gradientTransform="matrix(0.708077, 0.113034, -0.083249, 0.987782, 126.961327, -14.467101)" spreadMethod="pad">
      <stop offset="0" style="stop-color: rgba(85, 197, 132, 1)"/>
      <stop offset="1" style="stop-color: rgba(46, 134, 83, 1)"/>
    </linearGradient>
    <radialGradient id="gradient-8" gradientUnits="userSpaceOnUse" cx="83.329" cy="245.162" r="139.335" gradientTransform="matrix(1.259514, 0.355862, -0.200757, 0.790835, 46.4688, 1.97583)">
      <stop offset="0" style="stop-color: rgba(43, 134, 101, 1)"/>
      <stop offset="1" style="stop-color: rgba(18, 57, 43, 1)"/>
    </radialGradient>
    <radialGradient id="gradient-0" gradientUnits="userSpaceOnUse" cx="299.155" cy="178.716" r="84.645" gradientTransform="matrix(0.508431, 0.728251, -0.819943, 0.572446, 298.726768, -165.069687)">
      <stop offset="0" style="stop-color: rgba(85, 197, 132, 1)"/>
      <stop offset="1" style="stop-color: rgba(46, 134, 83, 1)"/>
    </radialGradient>
  </defs>
  <path style="fill: none; stroke: black;"/>
  <path style="fill: none; stroke: black;"/>
  <path style="fill: none; stroke: black;"/>
  <path d="M 285.558 219.6 C 250.219 219.842 263.169 180.777 276.92 158.067 C 297.357 124.317 345.884 112.738 375.869 137.073 C 414.547 168.463 450.671 200.317 421.417 244.937 C 395.309 284.758 298.849 293.034 337.391 237.698" style="stroke: black; fill: url(#gradient-0);"/>
  <path d="M 262.555 259.67 C 249.848 276.382 169.3 250.08 144.535 260.771 C 142.454 261.668 130.227 273.471 97.013 273.994 C 94.77 274.029 77.743 272.99 56.8 251.957 C 42.276 237.37 42.673 213.31 58.89 207.882" style="stroke: black; fill: url(#gradient-8);"/>
  <path d="M 149.627 213.117 C 174.06 181.312 335.273 188.346 314.218 243.852" style="stroke: rgb(4, 9, 72); fill: url(#gradient-12);"/>
  <path d="M 339.108 267.579 C 393.409 274.552 398.737 256.095 410.939 228.384 C 428.473 188.561 411.578 167.369 360.252 164.81 C 328.413 163.222 307.061 174.225 296.191 197.82 C 284.492 223.215 297.164 236.051 334.206 236.331 C 370.141 236.601 388.446 206.445 367.291 196.596 C 362.386 194.313 341.115 193.392 348.285 206.989" style="stroke: url(#gradient-3); fill: url(#gradient-4);" transform="matrix(0.65142, 0.758717, -0.758717, 0.65142, 288.213303, -193.606068)"/>
  <path d="M 346.788 240.266 C 324.962 243.711 234.857 216.582 217.261 218.009 C 194.923 219.819 185.473 244.032 148.289 229.347 C 112.954 215.389 121.032 162.1 166.116 162.921 C 175.997 163.101 187.798 167.527 187.526 191.757 C 187.332 209.09 167.573 213.181 161.452 209.926 C 155.308 206.659 156.035 190.966 169.675 191.354" style="stroke: rgb(4, 9, 72); fill: url(#gradient-10);" transform="matrix(0.993148, -0.11686, 0.11686, 0.993148, -21.954772, 29.022826)"/>
  <path d="M 108.283 234.079 C 142.708 193.316 369.855 202.331 340.189 273.47" style="stroke: rgb(4, 9, 72); fill: url(#gradient-12);"/>
  <path d="M 334.812 274.895 C 374.727 280.797 378.644 265.174 387.613 241.716 C 400.502 208.005 388.083 190.067 350.355 187.9 C 326.952 186.556 311.256 195.87 303.266 215.843 C 294.667 237.34 303.981 248.206 331.209 248.443 C 357.624 248.672 371.079 223.145 355.53 214.808 C 351.924 212.875 336.288 212.095 341.558 223.605" style="stroke: url(#gradient-3); fill: url(#gradient-4);"/>
  <path d="M 355.682 275.786 C 324.929 280.201 197.973 245.433 173.179 247.261 C 141.706 249.581 128.39 280.614 75.999 261.791 C 26.212 243.903 37.594 175.605 101.116 176.658 C 115.039 176.889 131.667 182.56 131.284 213.615 C 131.01 235.83 103.169 241.073 94.545 236.901 C 85.889 232.714 82.57 212.601 101.789 213.098" style="stroke: rgb(4, 9, 72); fill: url(#gradient-10);"/>
  <g transform="matrix(1, 0, 0, 1, 3.755077, 63.543468)"/>
  <path style="fill: none; stroke: black;"/>
  <path style="fill: none; stroke: black;"/>
  <path style="fill: none; stroke: black;"/>
</svg>