<?xml version="1.0" encoding="utf-8"?>
<svg width="500" height="500" viewBox="0 0 500 500" xmlns="http://www.w3.org/2000/svg">
  <defs>
    <radialGradient id="gradient-2" gradientUnits="userSpaceOnUse" cx="237.971" cy="236.527" r="220.72" spreadMethod="reflect" gradientTransform="matrix(-0.167236, 0.243518, -0.366239, -0.251515, 294.793968, 193.912849)">
      <stop offset="0" style="stop-color: rgb(43, 142, 113);"/>
      <stop offset="1" style="stop-color: rgb(65, 200, 148);"/>
    </radialGradient>
    <radialGradient id="gradient-1" gradientUnits="userSpaceOnUse" cx="237.971" cy="236.527" r="220.72" spreadMethod="reflect" gradientTransform="matrix(-0.442314, 0.242113, -0.085274, -0.250062, 350.283679, 146.972643)">
      <stop offset="0" style="stop-color: rgb(43, 142, 113);"/>
      <stop offset="1" style="stop-color: rgb(65, 200, 148);"/>
    </radialGradient>
  </defs>
  <path d="M 250.464 119.709 C 250.464 119.709 181.423 145.293 206.056 162.623 C 230.685 179.953 279.348 150.243 293.681 121.359 C 308.015 92.475 290.263 73.493 173.254 123.008 C 56.248 172.525 139.44 228.937 171.742 218.741 C 197.994 210.455 253.882 236.898 318.671 128.786 C 383.458 20.675 156.1 93.576 138.804 104.028 C 118.064 116.562 34.42 152.719 40.638 267.433 C 46.859 382.146 358.189 281.198 369.038 278.988 C 375.565 277.659 390.029 264.133 390.029 264.133 C 390.029 264.133 150.356 280.504 129.876 268.26 C 110.749 256.823 123.834 235.247 138.366 239.373 C 152.897 243.499 170.906 218.742 170.906 218.742" style="stroke: rgb(38, 115, 97); fill: url(#gradient-1);" transform="matrix(0.821241, 0.570581, -0.570581, 0.821241, 150.42672, -87.694008)"/>
  <path d="M 158.277 160.768 C 158.277 160.768 118.434 186.5 162.428 203.931 C 206.422 221.362 221.362 191.48 203.101 162.428 C 184.84 133.376 145.826 114.283 85.231 164.087 C 24.636 213.891 170.841 270.631 191.48 260.376 C 208.253 252.042 293.58 278.638 236.305 169.898 C 179.03 61.158 35.048 134.483 29.617 144.996 C 23.104 157.603 -19.357 193.97 115.944 309.35 C 251.245 424.73 447.143 323.194 455.442 320.971 C 460.435 319.634 459.592 306.03 459.592 306.03 C 459.592 306.03 239.735 322.496 205.591 310.18 C 173.704 298.679 162.428 276.977 181.519 281.127 C 200.61 285.277 190.65 260.377 190.65 260.377" style="stroke: rgb(38, 115, 97); fill: url(#gradient-2);"/>
  <path style="fill: none; stroke: rgb(38, 115, 97);"/>
</svg>